<svg xmlns="http://www.w3.org/2000/svg" viewBox="0 0 300 300" fill="none" role="img" aria-labelledby="c-ramunon-2-title" stroke-linecap="round" stroke-linejoin="round"><title id="c-ramunon-2-title">らむのん・おとな</title><ellipse cx="150" cy="276" rx="82" ry="6" fill="#202820" stroke="none" stroke-width="3" opacity=".12"/><path d="M98.0 185q-20 25 4 44t-2 40" fill="none" stroke="#275bbb" stroke-width="9"/><path d="M118.8 185q-20 25 4 44t-2 40" fill="none" stroke="#15978d" stroke-width="9"/><path d="M139.6 185q-20 25 4 44t-2 40" fill="none" stroke="#275bbb" stroke-width="9"/><path d="M160.4 185q-20 25 4 44t-2 40" fill="none" stroke="#15978d" stroke-width="9"/><path d="M181.2 185q-20 25 4 44t-2 40" fill="none" stroke="#275bbb" stroke-width="9"/><path d="M202.0 185q-20 25 4 44t-2 40" fill="none" stroke="#15978d" stroke-width="9"/><path d="M65 174q-1-91 85-92 87 2 85 92-21 28-41 5-27 28-47 0-22 23-45 0-21 22-37-5Z" fill="#275bbb" stroke="#202820" stroke-width="3"/><circle cx="109" cy="113" r="8" fill="#fff5de" stroke="#202820" stroke-width="2"/><circle cx="137" cy="104" r="5" fill="#fff5de" stroke="#202820" stroke-width="2"/><circle cx="194" cy="122" r="6" fill="#fff5de" stroke="#202820" stroke-width="2"/><rect x="129" y="55" width="41" height="35" rx="4" fill="#15978d" stroke="#202820" stroke-width="3"/><ellipse cx="150" cy="56" rx="25" ry="8" fill="#fff5de" stroke="#202820" stroke-width="3"/><circle cx="126" cy="148" r="5" fill="#fff5de" stroke="none" stroke-width="3"/><circle cx="174" cy="148" r="5" fill="#fff5de" stroke="none" stroke-width="3"/><path d="M142 165q8 10 16 0" fill="none" stroke="#fff5de" stroke-width="3.5"/><circle cx="126" cy="146" r="1" fill="#fff5de" stroke="none" stroke-width="3"/><circle cx="174" cy="146" r="1" fill="#fff5de" stroke="none" stroke-width="3"/></svg>
