<svg xmlns="http://www.w3.org/2000/svg" viewBox="0 0 480 360" role="img" aria-labelledby="title"><title id="title">じっくり玉ねぎスープ</title><rect width="480" height="360" fill="#fff5de"/><path d="M0 319H480M34 0V360" fill="none" stroke="#df442d" stroke-width="2" stroke-linejoin="round" stroke-linecap="round"/><ellipse cx="251" cy="274" rx="161" ry="17" fill="#202820" stroke="none" stroke-width="0"/><path d="M65 173Q82 291 240 297Q398 291 415 173Z" fill="#df442d" stroke="#202820" stroke-width="3" stroke-linejoin="round" stroke-linecap="round"/><ellipse cx="240" cy="173" rx="175" ry="89" fill="#fff5de" stroke="#202820" stroke-width="3"/><ellipse cx="240" cy="173" rx="156" ry="73" fill="#986026" stroke="#202820" stroke-width="3"/><path d="M139 257Q237 286 343 254" fill="none" stroke="#fff5de" stroke-width="5" stroke-linejoin="round" stroke-linecap="round"/><ellipse cx="240" cy="167" rx="147" ry="67" fill="#986026" stroke="#202820" stroke-width="3"/><g transform="translate(165 156) rotate(-4) scale(1.05)"><ellipse cx="0" cy="0" rx="16" ry="11" fill="#e4cda0" stroke="#202820" stroke-width="3"/><ellipse cx="0" cy="0" rx="10" ry="6" fill="#fff5de" stroke="#202820" stroke-width="2"/></g><g transform="translate(293 141) rotate(-4) scale(1.05)"><path d="M-17-8-4-15 18-8 22 7 4 15-17 9Z" fill="#24624b" stroke="#202820" stroke-width="3" stroke-linejoin="round" stroke-linecap="round"/><path d="M-9-3 10 2" fill="none" stroke="#202820" stroke-width="2" stroke-linejoin="round" stroke-linecap="round"/></g><g transform="translate(242 200) rotate(-4) scale(1.05)"><path d="M-19-3 10-17 22 10-15 15Z" fill="#f0cf62" stroke="#202820" stroke-width="3" stroke-linejoin="round" stroke-linecap="round"/><ellipse cx="3" cy="0" rx="3" ry="2" fill="#c09035" stroke="none" stroke-width="0"/><ellipse cx="-6" cy="8" rx="2" ry="2" fill="#c09035" stroke="none" stroke-width="0"/></g><g transform="translate(322 201) rotate(-4) scale(1.05)"><ellipse cx="0" cy="0" rx="16" ry="11" fill="#e4cda0" stroke="#202820" stroke-width="3"/><ellipse cx="0" cy="0" rx="10" ry="6" fill="#fff5de" stroke="#202820" stroke-width="2"/></g><g transform="translate(193 210) rotate(-4) scale(1.05)"><path d="M-17-8-4-15 18-8 22 7 4 15-17 9Z" fill="#774329" stroke="#202820" stroke-width="3" stroke-linejoin="round" stroke-linecap="round"/><path d="M-9-3 10 2" fill="none" stroke="#202820" stroke-width="2" stroke-linejoin="round" stroke-linecap="round"/></g><g transform="translate(228 133) rotate(-4) scale(1.05)"><path d="M-19-3 10-17 22 10-15 15Z" fill="#f0cf62" stroke="#202820" stroke-width="3" stroke-linejoin="round" stroke-linecap="round"/><ellipse cx="3" cy="0" rx="3" ry="2" fill="#c09035" stroke="none" stroke-width="0"/><ellipse cx="-6" cy="8" rx="2" ry="2" fill="#c09035" stroke="none" stroke-width="0"/></g><g transform="translate(124 183) rotate(-4) scale(1.05)"><ellipse cx="0" cy="0" rx="16" ry="11" fill="#e4cda0" stroke="#202820" stroke-width="3"/><ellipse cx="0" cy="0" rx="10" ry="6" fill="#fff5de" stroke="#202820" stroke-width="2"/></g></svg>
