<svg xmlns="http://www.w3.org/2000/svg" viewBox="0 0 480 360" role="img" aria-labelledby="title"><title id="title">エッグベネディクト</title><rect x="0" y="0" width="480" height="360" rx="0" fill="#fff5de" stroke="none" stroke-width="0"/><path d="M0 314Q90 285 165 318T329 315T480 311V360H0Z" fill="#f0dfb6" stroke="none" stroke-width="0" stroke-linecap="round" stroke-linejoin="round"/><ellipse cx="240" cy="239" rx="183" ry="72" fill="#d8c9a4" stroke="none" stroke-width="0"/><ellipse cx="240" cy="211" rx="191" ry="98" fill="#df442d" stroke="#202820" stroke-width="3"/><ellipse cx="240" cy="207" rx="169" ry="80" fill="#fff5de" stroke="#202820" stroke-width="3"/><ellipse cx="240" cy="207" rx="151" ry="66" fill="#fff5de" stroke="#dbc69b" stroke-width="2"/><ellipse cx="235" cy="238" rx="104" ry="32" fill="#a7652e" stroke="#202820" stroke-width="3"/><ellipse cx="235" cy="229" rx="104" ry="32" fill="#d69a49" stroke="#202820" stroke-width="3"/><rect x="137" y="190" width="199" height="27" rx="5" fill="#c97e67" stroke="#202820" stroke-width="3"/><ellipse cx="235" cy="186" rx="83" ry="36" fill="#fff5de" stroke="#202820" stroke-width="3"/><path d="M166 184Q178 143 232 151Q296 142 309 189Q274 201 253 191Q228 216 210 195Q185 207 166 184Z" fill="#edd180" stroke="#202820" stroke-width="3" stroke-linecap="round" stroke-linejoin="round"/><path d="M189 171Q219 160 245 164" fill="none" stroke="#fff5de" stroke-width="4" stroke-linecap="round" stroke-linejoin="round"/></svg>
