<svg xmlns="http://www.w3.org/2000/svg" width="480" height="360" viewBox="0 0 480 360"><rect width="480" height="360" fill="#fff5de"/><ellipse cx="244" cy="278" rx="171" ry="19" fill="#d5b781" stroke="none" stroke-width="0"/><path d="M48 178Q50 304 240 316Q431 305 432 178Z" fill="#24624b" stroke="#202820" stroke-width="3" stroke-linecap="round" stroke-linejoin="round"/><ellipse cx="240" cy="195" rx="198" ry="110" fill="#24624b" stroke="#202820" stroke-width="4"/><ellipse cx="240" cy="190" rx="176" ry="89" fill="#fff5de" stroke="#202820" stroke-width="2"/><path d="M84 235Q155 297 316 271" fill="none" stroke="#b1d1d1" stroke-width="2" stroke-linecap="round" stroke-linejoin="round"/><g transform="translate(240 187) rotate(0) scale(1)"><ellipse cx="0" cy="0" rx="147" ry="74" fill="#fff5de" stroke="#202820" stroke-width="3"/><ellipse cx="-117" cy="-45" rx="1.7" ry="1" fill="#d8c48e" stroke="none" stroke-width="0"/><ellipse cx="-28.123711340206185" cy="8.59550561797753" rx="2.7" ry="2" fill="#d8c48e" stroke="none" stroke-width="0"/><ellipse cx="60.75257731958763" cy="-27.808988764044944" rx="1.7" ry="1" fill="#d8c48e" stroke="none" stroke-width="0"/><ellipse cx="-83.37113402061857" cy="25.786516853932582" rx="2.7" ry="2" fill="#d8c48e" stroke="none" stroke-width="0"/><ellipse cx="5.5051546391752595" cy="-10.617977528089888" rx="1.7" ry="1" fill="#d8c48e" stroke="none" stroke-width="0"/><ellipse cx="94.38144329896906" cy="42.97752808988764" rx="2.7" ry="2" fill="#d8c48e" stroke="none" stroke-width="0"/><ellipse cx="-49.742268041237125" cy="6.573033707865164" rx="1.7" ry="1" fill="#d8c48e" stroke="none" stroke-width="0"/><ellipse cx="39.13402061855669" cy="-29.831460674157306" rx="2.7" ry="2" fill="#d8c48e" stroke="none" stroke-width="0"/><ellipse cx="-104.98969072164948" cy="23.764044943820224" rx="1.7" ry="1" fill="#d8c48e" stroke="none" stroke-width="0"/><ellipse cx="-16.113402061855666" cy="-12.640449438202246" rx="2.7" ry="2" fill="#d8c48e" stroke="none" stroke-width="0"/><ellipse cx="72.76288659793815" cy="40.95505617977528" rx="1.7" ry="1" fill="#d8c48e" stroke="none" stroke-width="0"/><ellipse cx="-71.36082474226805" cy="4.550561797752813" rx="2.7" ry="2" fill="#d8c48e" stroke="none" stroke-width="0"/><ellipse cx="17.51546391752575" cy="-31.853932584269664" rx="1.7" ry="1" fill="#d8c48e" stroke="none" stroke-width="0"/><ellipse cx="106.39175257731961" cy="21.741573033707866" rx="2.7" ry="2" fill="#d8c48e" stroke="none" stroke-width="0"/><ellipse cx="-37.73195876288659" cy="-14.662921348314608" rx="1.7" ry="1" fill="#d8c48e" stroke="none" stroke-width="0"/><ellipse cx="51.14432989690721" cy="38.93258426966291" rx="2.7" ry="2" fill="#d8c48e" stroke="none" stroke-width="0"/><ellipse cx="-92.97938144329896" cy="2.528089887640448" rx="1.7" ry="1" fill="#d8c48e" stroke="none" stroke-width="0"/><ellipse cx="-4.103092783505161" cy="-33.87640449438202" rx="2.7" ry="2" fill="#d8c48e" stroke="none" stroke-width="0"/><ellipse cx="84.77319587628867" cy="19.719101123595507" rx="1.7" ry="1" fill="#d8c48e" stroke="none" stroke-width="0"/><ellipse cx="-59.350515463917525" cy="-16.685393258426966" rx="2.7" ry="2" fill="#d8c48e" stroke="none" stroke-width="0"/><ellipse cx="29.525773195876297" cy="36.91011235955057" rx="1.7" ry="1" fill="#d8c48e" stroke="none" stroke-width="0"/><ellipse cx="-114.5979381443299" cy="0.5056179775280896" rx="2.7" ry="2" fill="#d8c48e" stroke="none" stroke-width="0"/><ellipse cx="-25.721649484536087" cy="-35.89887640449438" rx="1.7" ry="1" fill="#d8c48e" stroke="none" stroke-width="0"/><ellipse cx="63.15463917525773" cy="17.69662921348315" rx="2.7" ry="2" fill="#d8c48e" stroke="none" stroke-width="0"/><ellipse cx="-80.96907216494844" cy="-18.70786516853933" rx="1.7" ry="1" fill="#d8c48e" stroke="none" stroke-width="0"/><ellipse cx="7.907216494845358" cy="34.887640449438194" rx="2.7" ry="2" fill="#d8c48e" stroke="none" stroke-width="0"/><ellipse cx="96.78350515463916" cy="-1.5168539325842687" rx="1.7" ry="1" fill="#d8c48e" stroke="none" stroke-width="0"/><ellipse cx="-47.34020618556701" cy="-37.92134831460674" rx="2.7" ry="2" fill="#d8c48e" stroke="none" stroke-width="0"/><ellipse cx="41.536082474226816" cy="15.674157303370784" rx="1.7" ry="1" fill="#d8c48e" stroke="none" stroke-width="0"/><ellipse cx="-102.58762886597938" cy="-20.730337078651687" rx="2.7" ry="2" fill="#d8c48e" stroke="none" stroke-width="0"/><ellipse cx="-13.711340206185568" cy="32.865168539325836" rx="1.7" ry="1" fill="#d8c48e" stroke="none" stroke-width="0"/><ellipse cx="75.16494845360825" cy="-3.539325842696627" rx="2.7" ry="2" fill="#d8c48e" stroke="none" stroke-width="0"/><ellipse cx="-68.95876288659794" cy="-39.943820224719104" rx="1.7" ry="1" fill="#d8c48e" stroke="none" stroke-width="0"/><ellipse cx="19.917525773195877" cy="13.651685393258433" rx="2.7" ry="2" fill="#d8c48e" stroke="none" stroke-width="0"/><ellipse cx="108.79381443298968" cy="-22.752808988764045" rx="1.7" ry="1" fill="#d8c48e" stroke="none" stroke-width="0"/><ellipse cx="-35.329896907216494" cy="30.842696629213478" rx="2.7" ry="2" fill="#d8c48e" stroke="none" stroke-width="0"/><ellipse cx="53.54639175257731" cy="-5.561797752808985" rx="1.7" ry="1" fill="#d8c48e" stroke="none" stroke-width="0"/><ellipse cx="-90.57731958762886" cy="-41.96629213483146" rx="2.7" ry="2" fill="#d8c48e" stroke="none" stroke-width="0"/><ellipse cx="-1.701030927835049" cy="11.629213483146067" rx="1.7" ry="1" fill="#d8c48e" stroke="none" stroke-width="0"/><ellipse cx="87.17525773195877" cy="-24.775280898876407" rx="2.7" ry="2" fill="#d8c48e" stroke="none" stroke-width="0"/><ellipse cx="-56.948453608247426" cy="28.82022471910112" rx="1.7" ry="1" fill="#d8c48e" stroke="none" stroke-width="0"/><ellipse cx="31.927835051546367" cy="-7.5842696629213435" rx="2.7" ry="2" fill="#d8c48e" stroke="none" stroke-width="0"/><ellipse cx="-112.19587628865979" cy="-43.98876404494382" rx="1.7" ry="1" fill="#d8c48e" stroke="none" stroke-width="0"/><ellipse cx="-23.319587628865975" cy="9.606741573033709" rx="2.7" ry="2" fill="#d8c48e" stroke="none" stroke-width="0"/><ellipse cx="65.55670103092783" cy="-26.797752808988765" rx="1.7" ry="1" fill="#d8c48e" stroke="none" stroke-width="0"/><ellipse cx="-78.56701030927834" cy="26.79775280898876" rx="2.7" ry="2" fill="#d8c48e" stroke="none" stroke-width="0"/><ellipse cx="10.309278350515456" cy="-9.606741573033709" rx="1.7" ry="1" fill="#d8c48e" stroke="none" stroke-width="0"/><ellipse cx="99.18556701030928" cy="43.98876404494382" rx="2.7" ry="2" fill="#d8c48e" stroke="none" stroke-width="0"/><ellipse cx="-44.9381443298969" cy="7.5842696629213435" rx="1.7" ry="1" fill="#d8c48e" stroke="none" stroke-width="0"/><ellipse cx="43.938144329896915" cy="-28.820224719101123" rx="2.7" ry="2" fill="#d8c48e" stroke="none" stroke-width="0"/><ellipse cx="-100.18556701030928" cy="24.775280898876403" rx="1.7" ry="1" fill="#d8c48e" stroke="none" stroke-width="0"/><ellipse cx="-11.30927835051547" cy="-11.629213483146067" rx="2.7" ry="2" fill="#d8c48e" stroke="none" stroke-width="0"/><ellipse cx="77.56701030927834" cy="41.96629213483146" rx="1.7" ry="1" fill="#d8c48e" stroke="none" stroke-width="0"/><ellipse cx="-66.55670103092783" cy="5.561797752808992" rx="2.7" ry="2" fill="#d8c48e" stroke="none" stroke-width="0"/><ellipse cx="22.319587628865975" cy="-30.842696629213485" rx="1.7" ry="1" fill="#d8c48e" stroke="none" stroke-width="0"/><ellipse cx="111.19587628865978" cy="22.752808988764045" rx="2.7" ry="2" fill="#d8c48e" stroke="none" stroke-width="0"/><ellipse cx="-32.927835051546396" cy="-13.651685393258425" rx="1.7" ry="1" fill="#d8c48e" stroke="none" stroke-width="0"/><ellipse cx="55.94845360824743" cy="39.943820224719104" rx="2.7" ry="2" fill="#d8c48e" stroke="none" stroke-width="0"/><ellipse cx="-88.17525773195877" cy="3.539325842696627" rx="1.7" ry="1" fill="#d8c48e" stroke="none" stroke-width="0"/><ellipse cx="0.7010309278350491" cy="-32.86516853932584" rx="2.7" ry="2" fill="#d8c48e" stroke="none" stroke-width="0"/><ellipse cx="89.57731958762886" cy="20.730337078651687" rx="1.7" ry="1" fill="#d8c48e" stroke="none" stroke-width="0"/><ellipse cx="-54.54639175257732" cy="-15.674157303370784" rx="2.7" ry="2" fill="#d8c48e" stroke="none" stroke-width="0"/><ellipse cx="34.329896907216494" cy="37.921348314606746" rx="1.7" ry="1" fill="#d8c48e" stroke="none" stroke-width="0"/><ellipse cx="-109.79381443298969" cy="1.5168539325842758" rx="2.7" ry="2" fill="#d8c48e" stroke="none" stroke-width="0"/><ellipse cx="-20.917525773195877" cy="-34.8876404494382" rx="1.7" ry="1" fill="#d8c48e" stroke="none" stroke-width="0"/><ellipse cx="67.95876288659792" cy="18.70786516853932" rx="2.7" ry="2" fill="#d8c48e" stroke="none" stroke-width="0"/><ellipse cx="-76.16494845360825" cy="-17.696629213483146" rx="1.7" ry="1" fill="#d8c48e" stroke="none" stroke-width="0"/><ellipse cx="12.711340206185582" cy="35.898876404494374" rx="2.7" ry="2" fill="#d8c48e" stroke="none" stroke-width="0"/><ellipse cx="101.58762886597938" cy="-0.5056179775280896" rx="1.7" ry="1" fill="#d8c48e" stroke="none" stroke-width="0"/><ellipse cx="-42.536082474226816" cy="-36.91011235955056" rx="2.7" ry="2" fill="#d8c48e" stroke="none" stroke-width="0"/><ellipse cx="46.34020618556701" cy="16.68539325842697" rx="1.7" ry="1" fill="#d8c48e" stroke="none" stroke-width="0"/><ellipse cx="-97.78350515463917" cy="-19.719101123595504" rx="2.7" ry="2" fill="#d8c48e" stroke="none" stroke-width="0"/><ellipse cx="-8.907216494845358" cy="33.87640449438203" rx="1.7" ry="1" fill="#d8c48e" stroke="none" stroke-width="0"/><ellipse cx="79.96907216494844" cy="-2.528089887640448" rx="2.7" ry="2" fill="#d8c48e" stroke="none" stroke-width="0"/><ellipse cx="-64.15463917525773" cy="-38.932584269662925" rx="1.7" ry="1" fill="#d8c48e" stroke="none" stroke-width="0"/><ellipse cx="24.721649484536073" cy="14.662921348314605" rx="2.7" ry="2" fill="#d8c48e" stroke="none" stroke-width="0"/><ellipse cx="113.5979381443299" cy="-21.741573033707862" rx="1.7" ry="1" fill="#d8c48e" stroke="none" stroke-width="0"/><ellipse cx="-30.525773195876283" cy="31.853932584269657" rx="2.7" ry="2" fill="#d8c48e" stroke="none" stroke-width="0"/><ellipse cx="58.35051546391753" cy="-4.550561797752813" rx="1.7" ry="1" fill="#d8c48e" stroke="none" stroke-width="0"/><ellipse cx="-85.77319587628867" cy="-40.95505617977528" rx="2.7" ry="2" fill="#d8c48e" stroke="none" stroke-width="0"/><ellipse cx="3.103092783505147" cy="12.640449438202246" rx="1.7" ry="1" fill="#d8c48e" stroke="none" stroke-width="0"/><ellipse cx="91.97938144329899" cy="-23.764044943820224" rx="2.7" ry="2" fill="#d8c48e" stroke="none" stroke-width="0"/><ellipse cx="-52.14432989690721" cy="29.831460674157313" rx="1.7" ry="1" fill="#d8c48e" stroke="none" stroke-width="0"/><ellipse cx="36.73195876288659" cy="-6.5730337078651715" rx="2.7" ry="2" fill="#d8c48e" stroke="none" stroke-width="0"/><ellipse cx="-107.3917525773196" cy="-42.97752808988764" rx="1.7" ry="1" fill="#d8c48e" stroke="none" stroke-width="0"/><ellipse cx="-18.51546391752578" cy="10.617977528089881" rx="2.7" ry="2" fill="#d8c48e" stroke="none" stroke-width="0"/><ellipse cx="70.36082474226805" cy="-25.786516853932586" rx="1.7" ry="1" fill="#d8c48e" stroke="none" stroke-width="0"/><ellipse cx="-73.76288659793815" cy="27.80898876404494" rx="2.7" ry="2" fill="#d8c48e" stroke="none" stroke-width="0"/><ellipse cx="15.11340206185568" cy="-8.59550561797753" rx="1.7" ry="1" fill="#d8c48e" stroke="none" stroke-width="0"/><ellipse cx="103.98969072164948" cy="-45" rx="2.7" ry="2" fill="#d8c48e" stroke="none" stroke-width="0"/><ellipse cx="-40.134020618556704" cy="8.59550561797753" rx="1.7" ry="1" fill="#d8c48e" stroke="none" stroke-width="0"/><ellipse cx="48.74226804123711" cy="-27.808988764044944" rx="2.7" ry="2" fill="#d8c48e" stroke="none" stroke-width="0"/><ellipse cx="-95.38144329896907" cy="25.786516853932582" rx="1.7" ry="1" fill="#d8c48e" stroke="none" stroke-width="0"/><ellipse cx="-6.5051546391752595" cy="-10.617977528089888" rx="2.7" ry="2" fill="#d8c48e" stroke="none" stroke-width="0"/><ellipse cx="82.37113402061854" cy="42.97752808988764" rx="1.7" ry="1" fill="#d8c48e" stroke="none" stroke-width="0"/><ellipse cx="-61.75257731958763" cy="6.573033707865164" rx="2.7" ry="2" fill="#d8c48e" stroke="none" stroke-width="0"/><ellipse cx="27.1237113402062" cy="-29.831460674157306" rx="1.7" ry="1" fill="#d8c48e" stroke="none" stroke-width="0"/><ellipse cx="-117" cy="23.764044943820224" rx="2.7" ry="2" fill="#d8c48e" stroke="none" stroke-width="0"/><ellipse cx="-28.123711340206185" cy="-12.640449438202246" rx="1.7" ry="1" fill="#d8c48e" stroke="none" stroke-width="0"/><ellipse cx="60.75257731958763" cy="40.95505617977528" rx="2.7" ry="2" fill="#d8c48e" stroke="none" stroke-width="0"/><ellipse cx="-83.37113402061857" cy="4.550561797752813" rx="1.7" ry="1" fill="#d8c48e" stroke="none" stroke-width="0"/><ellipse cx="5.5051546391752595" cy="-31.853932584269664" rx="2.7" ry="2" fill="#d8c48e" stroke="none" stroke-width="0"/><ellipse cx="94.38144329896906" cy="21.741573033707866" rx="1.7" ry="1" fill="#d8c48e" stroke="none" stroke-width="0"/><ellipse cx="-49.742268041237125" cy="-14.662921348314608" rx="2.7" ry="2" fill="#d8c48e" stroke="none" stroke-width="0"/><ellipse cx="39.13402061855669" cy="38.93258426966291" rx="1.7" ry="1" fill="#d8c48e" stroke="none" stroke-width="0"/><ellipse cx="-104.98969072164948" cy="2.528089887640448" rx="2.7" ry="2" fill="#d8c48e" stroke="none" stroke-width="0"/><ellipse cx="-16.113402061855666" cy="-33.87640449438202" rx="1.7" ry="1" fill="#d8c48e" stroke="none" stroke-width="0"/><ellipse cx="72.76288659793815" cy="19.719101123595507" rx="2.7" ry="2" fill="#d8c48e" stroke="none" stroke-width="0"/><ellipse cx="-71.36082474226805" cy="-16.685393258426966" rx="1.7" ry="1" fill="#d8c48e" stroke="none" stroke-width="0"/><ellipse cx="17.51546391752575" cy="36.91011235955057" rx="2.7" ry="2" fill="#d8c48e" stroke="none" stroke-width="0"/></g><g transform="translate(142 169) rotate(-23) scale(1)"><path d="M-19-40Q1-54 21-33L20 40Q-1 55-23 35Z" fill="#c58d35" stroke="#202820" stroke-width="3" stroke-linecap="round" stroke-linejoin="round"/><path d="M-10-26Q1-33 11-24L10 30Q-1 37-11 29Z" fill="#e6c99e" stroke="#202820" stroke-width="1.4" stroke-linecap="round" stroke-linejoin="round"/><ellipse cx="-18" cy="-32" rx="1.7" ry="1" fill="#9c6429" stroke="none" stroke-width="0"/><ellipse cx="-3.8865979381443303" cy="4.325842696629216" rx="2.7" ry="2" fill="#9c6429" stroke="none" stroke-width="0"/><ellipse cx="10.22680412371134" cy="-20.348314606741575" rx="1.7" ry="1" fill="#9c6429" stroke="none" stroke-width="0"/><ellipse cx="-12.659793814432991" cy="15.977528089887642" rx="2.7" ry="2" fill="#9c6429" stroke="none" stroke-width="0"/><ellipse cx="1.4536082474226824" cy="-8.696629213483146" rx="1.7" ry="1" fill="#9c6429" stroke="none" stroke-width="0"/><ellipse cx="15.567010309278352" cy="27.629213483146067" rx="2.7" ry="2" fill="#9c6429" stroke="none" stroke-width="0"/><ellipse cx="-7.31958762886598" cy="2.9550561797752763" rx="1.7" ry="1" fill="#9c6429" stroke="none" stroke-width="0"/><ellipse cx="6.793814432989688" cy="-21.719101123595507" rx="2.7" ry="2" fill="#9c6429" stroke="none" stroke-width="0"/><ellipse cx="-16.09278350515464" cy="14.606741573033709" rx="1.7" ry="1" fill="#9c6429" stroke="none" stroke-width="0"/><ellipse cx="-1.9793814432989691" cy="-10.067415730337078" rx="2.7" ry="2" fill="#9c6429" stroke="none" stroke-width="0"/><ellipse cx="12.1340206185567" cy="26.258426966292134" rx="1.7" ry="1" fill="#9c6429" stroke="none" stroke-width="0"/><ellipse cx="-10.75257731958763" cy="1.5842696629213506" rx="2.7" ry="2" fill="#9c6429" stroke="none" stroke-width="0"/><ellipse cx="3.36082474226804" cy="-23.08988764044944" rx="1.7" ry="1" fill="#9c6429" stroke="none" stroke-width="0"/><ellipse cx="17.47422680412371" cy="13.235955056179776" rx="2.7" ry="2" fill="#9c6429" stroke="none" stroke-width="0"/><ellipse cx="-5.412371134020619" cy="-11.438202247191011" rx="1.7" ry="1" fill="#9c6429" stroke="none" stroke-width="0"/><ellipse cx="8.701030927835053" cy="24.8876404494382" rx="2.7" ry="2" fill="#9c6429" stroke="none" stroke-width="0"/><ellipse cx="-14.185567010309278" cy="0.2134831460674107" rx="1.7" ry="1" fill="#9c6429" stroke="none" stroke-width="0"/></g><g transform="translate(184 176) rotate(-23) scale(1)"><path d="M-19-40Q1-54 21-33L20 40Q-1 55-23 35Z" fill="#c58d35" stroke="#202820" stroke-width="3" stroke-linecap="round" stroke-linejoin="round"/><path d="M-10-26Q1-33 11-24L10 30Q-1 37-11 29Z" fill="#e6c99e" stroke="#202820" stroke-width="1.4" stroke-linecap="round" stroke-linejoin="round"/><ellipse cx="-13.804123711340207" cy="-20.348314606741575" rx="1.7" ry="1" fill="#9c6429" stroke="none" stroke-width="0"/><ellipse cx="0.3092783505154628" cy="15.977528089887642" rx="2.7" ry="2" fill="#9c6429" stroke="none" stroke-width="0"/><ellipse cx="14.422680412371136" cy="-8.696629213483146" rx="1.7" ry="1" fill="#9c6429" stroke="none" stroke-width="0"/><ellipse cx="-8.463917525773198" cy="27.629213483146067" rx="2.7" ry="2" fill="#9c6429" stroke="none" stroke-width="0"/><ellipse cx="5.649484536082472" cy="2.9550561797752763" rx="1.7" ry="1" fill="#9c6429" stroke="none" stroke-width="0"/><ellipse cx="-17.237113402061855" cy="-21.719101123595507" rx="2.7" ry="2" fill="#9c6429" stroke="none" stroke-width="0"/><ellipse cx="-3.123711340206185" cy="14.606741573033709" rx="1.7" ry="1" fill="#9c6429" stroke="none" stroke-width="0"/><ellipse cx="10.989690721649485" cy="-10.067415730337078" rx="2.7" ry="2" fill="#9c6429" stroke="none" stroke-width="0"/><ellipse cx="-11.896907216494846" cy="26.258426966292134" rx="1.7" ry="1" fill="#9c6429" stroke="none" stroke-width="0"/><ellipse cx="2.216494845360824" cy="1.5842696629213506" rx="2.7" ry="2" fill="#9c6429" stroke="none" stroke-width="0"/><ellipse cx="16.329896907216494" cy="-23.08988764044944" rx="1.7" ry="1" fill="#9c6429" stroke="none" stroke-width="0"/><ellipse cx="-6.556701030927835" cy="13.235955056179776" rx="2.7" ry="2" fill="#9c6429" stroke="none" stroke-width="0"/><ellipse cx="7.556701030927833" cy="-11.438202247191011" rx="1.7" ry="1" fill="#9c6429" stroke="none" stroke-width="0"/><ellipse cx="-15.329896907216495" cy="24.8876404494382" rx="2.7" ry="2" fill="#9c6429" stroke="none" stroke-width="0"/><ellipse cx="-1.216494845360824" cy="0.2134831460674107" rx="1.7" ry="1" fill="#9c6429" stroke="none" stroke-width="0"/><ellipse cx="12.896907216494846" cy="-24.460674157303373" rx="2.7" ry="2" fill="#9c6429" stroke="none" stroke-width="0"/><ellipse cx="-9.989690721649485" cy="11.865168539325843" rx="1.7" ry="1" fill="#9c6429" stroke="none" stroke-width="0"/></g><g transform="translate(226 183) rotate(-23) scale(1)"><path d="M-19-40Q1-54 21-33L20 40Q-1 55-23 35Z" fill="#c58d35" stroke="#202820" stroke-width="3" stroke-linecap="round" stroke-linejoin="round"/><path d="M-10-26Q1-33 11-24L10 30Q-1 37-11 29Z" fill="#e6c99e" stroke="#202820" stroke-width="1.4" stroke-linecap="round" stroke-linejoin="round"/><ellipse cx="-9.608247422680412" cy="-8.696629213483146" rx="1.7" ry="1" fill="#9c6429" stroke="none" stroke-width="0"/><ellipse cx="4.505154639175256" cy="27.629213483146067" rx="2.7" ry="2" fill="#9c6429" stroke="none" stroke-width="0"/><ellipse cx="18.618556701030926" cy="2.9550561797752763" rx="1.7" ry="1" fill="#9c6429" stroke="none" stroke-width="0"/><ellipse cx="-4.268041237113401" cy="-21.719101123595507" rx="2.7" ry="2" fill="#9c6429" stroke="none" stroke-width="0"/><ellipse cx="9.845360824742269" cy="14.606741573033709" rx="1.7" ry="1" fill="#9c6429" stroke="none" stroke-width="0"/><ellipse cx="-13.041237113402062" cy="-10.067415730337078" rx="2.7" ry="2" fill="#9c6429" stroke="none" stroke-width="0"/><ellipse cx="1.0721649484536044" cy="26.258426966292134" rx="1.7" ry="1" fill="#9c6429" stroke="none" stroke-width="0"/><ellipse cx="15.185567010309278" cy="1.5842696629213506" rx="2.7" ry="2" fill="#9c6429" stroke="none" stroke-width="0"/><ellipse cx="-7.701030927835051" cy="-23.08988764044944" rx="1.7" ry="1" fill="#9c6429" stroke="none" stroke-width="0"/><ellipse cx="6.412371134020617" cy="13.235955056179776" rx="2.7" ry="2" fill="#9c6429" stroke="none" stroke-width="0"/><ellipse cx="-16.47422680412371" cy="-11.438202247191011" rx="1.7" ry="1" fill="#9c6429" stroke="none" stroke-width="0"/><ellipse cx="-2.3608247422680417" cy="24.8876404494382" rx="2.7" ry="2" fill="#9c6429" stroke="none" stroke-width="0"/><ellipse cx="11.75257731958763" cy="0.2134831460674107" rx="1.7" ry="1" fill="#9c6429" stroke="none" stroke-width="0"/><ellipse cx="-11.1340206185567" cy="-24.460674157303373" rx="2.7" ry="2" fill="#9c6429" stroke="none" stroke-width="0"/><ellipse cx="2.979381443298969" cy="11.865168539325843" rx="1.7" ry="1" fill="#9c6429" stroke="none" stroke-width="0"/><ellipse cx="17.092783505154635" cy="-12.808988764044944" rx="2.7" ry="2" fill="#9c6429" stroke="none" stroke-width="0"/><ellipse cx="-5.7938144329896915" cy="23.51685393258427" rx="1.7" ry="1" fill="#9c6429" stroke="none" stroke-width="0"/></g><g transform="translate(268 190) rotate(-23) scale(1)"><path d="M-19-40Q1-54 21-33L20 40Q-1 55-23 35Z" fill="#c58d35" stroke="#202820" stroke-width="3" stroke-linecap="round" stroke-linejoin="round"/><path d="M-10-26Q1-33 11-24L10 30Q-1 37-11 29Z" fill="#e6c99e" stroke="#202820" stroke-width="1.4" stroke-linecap="round" stroke-linejoin="round"/><ellipse cx="-5.412371134020619" cy="2.9550561797752763" rx="1.7" ry="1" fill="#9c6429" stroke="none" stroke-width="0"/><ellipse cx="8.701030927835053" cy="-21.719101123595507" rx="2.7" ry="2" fill="#9c6429" stroke="none" stroke-width="0"/><ellipse cx="-14.185567010309278" cy="14.606741573033709" rx="1.7" ry="1" fill="#9c6429" stroke="none" stroke-width="0"/><ellipse cx="-0.07216494845360799" cy="-10.067415730337078" rx="2.7" ry="2" fill="#9c6429" stroke="none" stroke-width="0"/><ellipse cx="14.041237113402062" cy="26.258426966292134" rx="1.7" ry="1" fill="#9c6429" stroke="none" stroke-width="0"/><ellipse cx="-8.845360824742269" cy="1.5842696629213506" rx="2.7" ry="2" fill="#9c6429" stroke="none" stroke-width="0"/><ellipse cx="5.268041237113401" cy="-23.08988764044944" rx="1.7" ry="1" fill="#9c6429" stroke="none" stroke-width="0"/><ellipse cx="-17.61855670103093" cy="13.235955056179776" rx="2.7" ry="2" fill="#9c6429" stroke="none" stroke-width="0"/><ellipse cx="-3.5051546391752577" cy="-11.438202247191011" rx="1.7" ry="1" fill="#9c6429" stroke="none" stroke-width="0"/><ellipse cx="10.608247422680414" cy="24.8876404494382" rx="2.7" ry="2" fill="#9c6429" stroke="none" stroke-width="0"/><ellipse cx="-12.278350515463917" cy="0.2134831460674107" rx="1.7" ry="1" fill="#9c6429" stroke="none" stroke-width="0"/><ellipse cx="1.8350515463917532" cy="-24.460674157303373" rx="2.7" ry="2" fill="#9c6429" stroke="none" stroke-width="0"/><ellipse cx="15.94845360824742" cy="11.865168539325843" rx="1.7" ry="1" fill="#9c6429" stroke="none" stroke-width="0"/><ellipse cx="-6.938144329896907" cy="-12.808988764044944" rx="2.7" ry="2" fill="#9c6429" stroke="none" stroke-width="0"/><ellipse cx="7.175257731958762" cy="23.51685393258427" rx="1.7" ry="1" fill="#9c6429" stroke="none" stroke-width="0"/><ellipse cx="-15.711340206185568" cy="-1.157303370786515" rx="2.7" ry="2" fill="#9c6429" stroke="none" stroke-width="0"/><ellipse cx="-1.5979381443298983" cy="-25.831460674157302" rx="1.7" ry="1" fill="#9c6429" stroke="none" stroke-width="0"/></g><g transform="translate(310 197) rotate(-23) scale(1)"><path d="M-19-40Q1-54 21-33L20 40Q-1 55-23 35Z" fill="#c58d35" stroke="#202820" stroke-width="3" stroke-linecap="round" stroke-linejoin="round"/><path d="M-10-26Q1-33 11-24L10 30Q-1 37-11 29Z" fill="#e6c99e" stroke="#202820" stroke-width="1.4" stroke-linecap="round" stroke-linejoin="round"/><ellipse cx="-1.216494845360824" cy="14.606741573033709" rx="1.7" ry="1" fill="#9c6429" stroke="none" stroke-width="0"/><ellipse cx="12.896907216494846" cy="-10.067415730337078" rx="2.7" ry="2" fill="#9c6429" stroke="none" stroke-width="0"/><ellipse cx="-9.989690721649485" cy="26.258426966292134" rx="1.7" ry="1" fill="#9c6429" stroke="none" stroke-width="0"/><ellipse cx="4.123711340206185" cy="1.5842696629213506" rx="2.7" ry="2" fill="#9c6429" stroke="none" stroke-width="0"/><ellipse cx="18.23711340206185" cy="-23.08988764044944" rx="1.7" ry="1" fill="#9c6429" stroke="none" stroke-width="0"/><ellipse cx="-4.649484536082474" cy="13.235955056179776" rx="2.7" ry="2" fill="#9c6429" stroke="none" stroke-width="0"/><ellipse cx="9.463917525773198" cy="-11.438202247191011" rx="1.7" ry="1" fill="#9c6429" stroke="none" stroke-width="0"/><ellipse cx="-13.422680412371134" cy="24.8876404494382" rx="2.7" ry="2" fill="#9c6429" stroke="none" stroke-width="0"/><ellipse cx="0.6907216494845372" cy="0.2134831460674107" rx="1.7" ry="1" fill="#9c6429" stroke="none" stroke-width="0"/><ellipse cx="14.804123711340203" cy="-24.460674157303373" rx="2.7" ry="2" fill="#9c6429" stroke="none" stroke-width="0"/><ellipse cx="-8.082474226804123" cy="11.865168539325843" rx="1.7" ry="1" fill="#9c6429" stroke="none" stroke-width="0"/><ellipse cx="6.030927835051546" cy="-12.808988764044944" rx="2.7" ry="2" fill="#9c6429" stroke="none" stroke-width="0"/><ellipse cx="-16.855670103092784" cy="23.51685393258427" rx="1.7" ry="1" fill="#9c6429" stroke="none" stroke-width="0"/><ellipse cx="-2.7422680412371143" cy="-1.157303370786515" rx="2.7" ry="2" fill="#9c6429" stroke="none" stroke-width="0"/><ellipse cx="11.371134020618555" cy="-25.831460674157302" rx="1.7" ry="1" fill="#9c6429" stroke="none" stroke-width="0"/><ellipse cx="-11.515463917525775" cy="10.49438202247191" rx="2.7" ry="2" fill="#9c6429" stroke="none" stroke-width="0"/><ellipse cx="2.5979381443298983" cy="-14.179775280898877" rx="1.7" ry="1" fill="#9c6429" stroke="none" stroke-width="0"/></g><path d="M103 202Q129 181 151 202Q177 180 196 204Q221 187 241 209Q267 190 287 211Q328 196 358 220Q326 247 295 233Q258 260 234 239Q197 256 171 234Q125 241 103 202Z" fill="#edc968" stroke="#ab813e" stroke-width="1.8" stroke-linecap="round" stroke-linejoin="round"/><path d="M132 153Q120 191 158 219" fill="none" stroke="#dcc598" stroke-width="5" stroke-linecap="round" stroke-linejoin="round"/><path d="M204 137Q188 170 218 189" fill="none" stroke="#dcc598" stroke-width="5" stroke-linecap="round" stroke-linejoin="round"/><path d="M315 172Q305 207 333 216" fill="none" stroke="#dcc598" stroke-width="5" stroke-linecap="round" stroke-linejoin="round"/></svg>