<svg xmlns="http://www.w3.org/2000/svg" viewBox="0 0 480 360" role="img" aria-labelledby="title"><title id="title">洋梨のアーモンドタルト</title><rect x="0" y="0" width="480" height="360" rx="0" fill="#fff5de" stroke="none" stroke-width="0"/><path d="M0 314Q90 285 165 318T329 315T480 311V360H0Z" fill="#f0dfb6" stroke="none" stroke-width="0" stroke-linecap="round" stroke-linejoin="round"/><ellipse cx="240" cy="239" rx="183" ry="72" fill="#d8c9a4" stroke="none" stroke-width="0"/><ellipse cx="240" cy="211" rx="191" ry="98" fill="#df442d" stroke="#202820" stroke-width="3"/><ellipse cx="240" cy="207" rx="169" ry="80" fill="#fff5de" stroke="#202820" stroke-width="3"/><ellipse cx="240" cy="207" rx="151" ry="66" fill="#fff5de" stroke="#dbc69b" stroke-width="2"/><g transform="translate(240 203) rotate(0) scale(1)"><ellipse cx="0" cy="13" rx="107" ry="52" fill="#a7652e" stroke="#202820" stroke-width="3"/><ellipse cx="0" cy="0" rx="111" ry="49" fill="#d69a49" stroke="#202820" stroke-width="3"/><ellipse cx="0" cy="-2" rx="92" ry="37" fill="#d6a254" stroke="#202820" stroke-width="3"/><path d="M104 0l7 0" fill="none" stroke="#8b5129" stroke-width="2" stroke-linecap="round" stroke-linejoin="round"/><path d="M96.97711185805301 15.894633312234728l6.527305605830491 1.8062083309357646" fill="none" stroke="#8b5129" stroke-width="2" stroke-linecap="round" stroke-linejoin="round"/><path d="M76.85692739094854 29.642608320448517l5.173062420544614 3.368478218232786" fill="none" stroke="#8b5129" stroke-width="2" stroke-linecap="round" stroke-linejoin="round"/><path d="M46.35678900075998 39.387184819622746l3.120168490435768 4.475816456775312" fill="none" stroke="#8b5129" stroke-width="2" stroke-linecap="round" stroke-linejoin="round"/><path d="M9.59590938418341 43.812303756981514l0.6458785162431141 4.978670881475172" fill="none" stroke="#8b5129" stroke-width="2" stroke-linecap="round" stroke-linejoin="round"/><path d="M-28.460950967496622 42.320328299604036l-1.9156409305045803 4.809128215864095" fill="none" stroke="#8b5129" stroke-width="2" stroke-linecap="round" stroke-linejoin="round"/><path d="M-62.67400218344265 35.112758000330544l-4.218442454654794 3.990086136401198" fill="none" stroke="#8b5129" stroke-width="2" stroke-linecap="round" stroke-linejoin="round"/><path d="M-88.42258211587986 23.163015166603667l-5.951519950107298 2.63216081438678" fill="none" stroke="#8b5129" stroke-width="2" stroke-linecap="round" stroke-linejoin="round"/><path d="M-102.22920236712578 8.084978783929095l-6.880811697787313 0.9187475890828518" fill="none" stroke="#8b5129" stroke-width="2" stroke-linecap="round" stroke-linejoin="round"/><path d="M-102.22920236712578 -8.084978783929085l-6.880811697787313 -0.9187475890828506" fill="none" stroke="#8b5129" stroke-width="2" stroke-linecap="round" stroke-linejoin="round"/><path d="M-88.42258211587986 -23.163015166603657l-5.951519950107299 -2.632160814386779" fill="none" stroke="#8b5129" stroke-width="2" stroke-linecap="round" stroke-linejoin="round"/><path d="M-62.674002183442745 -35.112758000330516l-4.2184424546548005 -3.9900861364011946" fill="none" stroke="#8b5129" stroke-width="2" stroke-linecap="round" stroke-linejoin="round"/><path d="M-28.460950967496643 -42.320328299604036l-1.9156409305045818 -4.809128215864095" fill="none" stroke="#8b5129" stroke-width="2" stroke-linecap="round" stroke-linejoin="round"/><path d="M9.595909384183454 -43.812303756981514l0.645878516243117 -4.978670881475172" fill="none" stroke="#8b5129" stroke-width="2" stroke-linecap="round" stroke-linejoin="round"/><path d="M46.35678900075992 -39.38718481962275l3.120168490435764 -4.475816456775313" fill="none" stroke="#8b5129" stroke-width="2" stroke-linecap="round" stroke-linejoin="round"/><path d="M76.8569273909485 -29.64260832044854l5.1730624205446105 -3.368478218232789" fill="none" stroke="#8b5129" stroke-width="2" stroke-linecap="round" stroke-linejoin="round"/><path d="M96.97711185805301 -15.894633312234733l6.527305605830491 -1.8062083309357653" fill="none" stroke="#8b5129" stroke-width="2" stroke-linecap="round" stroke-linejoin="round"/></g><g transform="translate(193 174) rotate(-25) scale(0.95)"><path d="M-33-15Q-14-48 25-30L38 21Q-4 35-33-15Z" fill="#e8d397" stroke="#202820" stroke-width="3" stroke-linecap="round" stroke-linejoin="round"/><path d="M-22-14 27 19" fill="none" stroke="#c5a965" stroke-width="2" stroke-linecap="round" stroke-linejoin="round"/></g><g transform="translate(213 179) rotate(-21) scale(0.95)"><path d="M-33-15Q-14-48 25-30L38 21Q-4 35-33-15Z" fill="#e8d397" stroke="#202820" stroke-width="3" stroke-linecap="round" stroke-linejoin="round"/><path d="M-22-14 27 19" fill="none" stroke="#c5a965" stroke-width="2" stroke-linecap="round" stroke-linejoin="round"/></g><g transform="translate(233 184) rotate(-17) scale(0.95)"><path d="M-33-15Q-14-48 25-30L38 21Q-4 35-33-15Z" fill="#e8d397" stroke="#202820" stroke-width="3" stroke-linecap="round" stroke-linejoin="round"/><path d="M-22-14 27 19" fill="none" stroke="#c5a965" stroke-width="2" stroke-linecap="round" stroke-linejoin="round"/></g><g transform="translate(253 189) rotate(-13) scale(0.95)"><path d="M-33-15Q-14-48 25-30L38 21Q-4 35-33-15Z" fill="#e8d397" stroke="#202820" stroke-width="3" stroke-linecap="round" stroke-linejoin="round"/><path d="M-22-14 27 19" fill="none" stroke="#c5a965" stroke-width="2" stroke-linecap="round" stroke-linejoin="round"/></g><g transform="translate(273 194) rotate(-9) scale(0.95)"><path d="M-33-15Q-14-48 25-30L38 21Q-4 35-33-15Z" fill="#e8d397" stroke="#202820" stroke-width="3" stroke-linecap="round" stroke-linejoin="round"/><path d="M-22-14 27 19" fill="none" stroke="#c5a965" stroke-width="2" stroke-linecap="round" stroke-linejoin="round"/></g></svg>
