<svg xmlns="http://www.w3.org/2000/svg" viewBox="0 0 480 360" role="img" aria-labelledby="title"><title id="title">かぼちゃと豆のコロッケ</title><rect width="480" height="360" fill="#fff5de"/><path d="M0 319H480M34 0V360" fill="none" stroke="#275bbb" stroke-width="2" stroke-linejoin="round" stroke-linecap="round"/><ellipse cx="251" cy="274" rx="161" ry="17" fill="#202820" stroke="none" stroke-width="0"/><ellipse cx="240" cy="190" rx="186" ry="112" fill="#275bbb" stroke="#202820" stroke-width="3"/><ellipse cx="240" cy="184" rx="171" ry="100" fill="#fff5de" stroke="#202820" stroke-width="3"/><ellipse cx="240" cy="184" rx="152" ry="83" fill="#fff5de" stroke="#275bbb" stroke-width="3"/><ellipse cx="404" cy="184" rx="3" ry="3" fill="#275bbb" stroke="none" stroke-width="0"/><ellipse cx="382.02816622064796" cy="230" rx="3" ry="3" fill="#275bbb" stroke="none" stroke-width="0"/><ellipse cx="322" cy="263.6743371481683" rx="3" ry="3" fill="#275bbb" stroke="none" stroke-width="0"/><ellipse cx="240" cy="276" rx="3" ry="3" fill="#275bbb" stroke="none" stroke-width="0"/><ellipse cx="158.00000000000006" cy="263.6743371481684" rx="3" ry="3" fill="#275bbb" stroke="none" stroke-width="0"/><ellipse cx="97.97183377935204" cy="230" rx="3" ry="3" fill="#275bbb" stroke="none" stroke-width="0"/><ellipse cx="76" cy="184" rx="3" ry="3" fill="#275bbb" stroke="none" stroke-width="0"/><ellipse cx="97.97183377935204" cy="138.00000000000003" rx="3" ry="3" fill="#275bbb" stroke="none" stroke-width="0"/><ellipse cx="157.99999999999994" cy="104.32566285183167" rx="3" ry="3" fill="#275bbb" stroke="none" stroke-width="0"/><ellipse cx="239.99999999999997" cy="92" rx="3" ry="3" fill="#275bbb" stroke="none" stroke-width="0"/><ellipse cx="322" cy="104.32566285183165" rx="3" ry="3" fill="#275bbb" stroke="none" stroke-width="0"/><ellipse cx="382.0281662206479" cy="137.99999999999994" rx="3" ry="3" fill="#275bbb" stroke="none" stroke-width="0"/><ellipse cx="153" cy="165" rx="48" ry="32" fill="#d98a20" stroke="#202820" stroke-width="3"/><path d="M122 158l41 12m-33-25 39 14" fill="none" stroke="#754024" stroke-width="3" stroke-linejoin="round" stroke-linecap="round"/><ellipse cx="241" cy="199" rx="48" ry="32" fill="#d98a20" stroke="#202820" stroke-width="3"/><path d="M210 192l41 12m-33-25 39 14" fill="none" stroke="#754024" stroke-width="3" stroke-linejoin="round" stroke-linecap="round"/><ellipse cx="329" cy="165" rx="48" ry="32" fill="#d98a20" stroke="#202820" stroke-width="3"/><path d="M298 158l41 12m-33-25 39 14" fill="none" stroke="#754024" stroke-width="3" stroke-linejoin="round" stroke-linecap="round"/><g transform="translate(165 156) rotate(-9) scale(1)"><path d="M-17-8-4-15 18-8 22 7 4 15-17 9Z" fill="#774329" stroke="#202820" stroke-width="3" stroke-linejoin="round" stroke-linecap="round"/><path d="M-9-3 10 2" fill="none" stroke="#202820" stroke-width="2" stroke-linejoin="round" stroke-linecap="round"/></g><g transform="translate(293 141) rotate(-9) scale(1)"><path d="M-15-13 9-18 24 3 12 20-13 17-22 0Z" fill="#e89e22" stroke="#202820" stroke-width="3" stroke-linejoin="round" stroke-linecap="round"/></g><g transform="translate(242 200) rotate(-9) scale(1)"><path d="M-24 7Q-27-9-11-16L-3-10 9-20Q24-15 23 0L15 13 0 17Z" fill="#24624b" stroke="#202820" stroke-width="3" stroke-linejoin="round" stroke-linecap="round"/><path d="M-19 7 17-9" fill="none" stroke="#8cba5e" stroke-width="2" stroke-linejoin="round" stroke-linecap="round"/></g><g transform="translate(322 201) rotate(-9) scale(1)"><path d="M-24-10Q-5-22 19-7Q30 0 8 8Q-13 13-24 5" fill="none" stroke="#855237" stroke-width="4" stroke-linejoin="round" stroke-linecap="round"/></g><g transform="translate(193 210) rotate(-9) scale(1)"><path d="M-17-8-4-15 18-8 22 7 4 15-17 9Z" fill="#774329" stroke="#202820" stroke-width="3" stroke-linejoin="round" stroke-linecap="round"/><path d="M-9-3 10 2" fill="none" stroke="#202820" stroke-width="2" stroke-linejoin="round" stroke-linecap="round"/></g><g transform="translate(228 133) rotate(-9) scale(1)"><path d="M-15-13 9-18 24 3 12 20-13 17-22 0Z" fill="#e89e22" stroke="#202820" stroke-width="3" stroke-linejoin="round" stroke-linecap="round"/></g><g transform="translate(124 183) rotate(-9) scale(1)"><path d="M-24 7Q-27-9-11-16L-3-10 9-20Q24-15 23 0L15 13 0 17Z" fill="#24624b" stroke="#202820" stroke-width="3" stroke-linejoin="round" stroke-linecap="round"/><path d="M-19 7 17-9" fill="none" stroke="#8cba5e" stroke-width="2" stroke-linejoin="round" stroke-linecap="round"/></g><g transform="translate(279 228) rotate(-9) scale(1)"><path d="M-24-10Q-5-22 19-7Q30 0 8 8Q-13 13-24 5" fill="none" stroke="#855237" stroke-width="4" stroke-linejoin="round" stroke-linecap="round"/></g><g transform="translate(150 215) rotate(-9) scale(1)"><path d="M-17-8-4-15 18-8 22 7 4 15-17 9Z" fill="#774329" stroke="#202820" stroke-width="3" stroke-linejoin="round" stroke-linecap="round"/><path d="M-9-3 10 2" fill="none" stroke="#202820" stroke-width="2" stroke-linejoin="round" stroke-linecap="round"/></g><g transform="translate(339 168) rotate(-9) scale(1)"><path d="M-15-13 9-18 24 3 12 20-13 17-22 0Z" fill="#e89e22" stroke="#202820" stroke-width="3" stroke-linejoin="round" stroke-linecap="round"/></g><g transform="translate(212 171) rotate(-9) scale(1)"><path d="M-24 7Q-27-9-11-16L-3-10 9-20Q24-15 23 0L15 13 0 17Z" fill="#24624b" stroke="#202820" stroke-width="3" stroke-linejoin="round" stroke-linecap="round"/><path d="M-19 7 17-9" fill="none" stroke="#8cba5e" stroke-width="2" stroke-linejoin="round" stroke-linecap="round"/></g><g transform="translate(279 177) rotate(-9) scale(1)"><path d="M-24-10Q-5-22 19-7Q30 0 8 8Q-13 13-24 5" fill="none" stroke="#855237" stroke-width="4" stroke-linejoin="round" stroke-linecap="round"/></g></svg>
