<svg xmlns="http://www.w3.org/2000/svg" viewBox="0 0 800 600" fill="none" role="img" aria-labelledby="i-town-kissaten-title" stroke-linecap="round" stroke-linejoin="round"><title id="i-town-kissaten-title">町の喫茶店</title><rect x="0" y="0" width="800" height="600" rx="0" fill="#fff5de" stroke="none" stroke-width="3"/><rect x="0" y="375" width="800" height="225" rx="0" fill="#ed822f" stroke="none" stroke-width="3"/><path d="M0 375H800" fill="none" stroke="#202820" stroke-width="6"/><path d="M0 450H800M0 535H800M160 375 70 600M640 375l90 225" fill="none" stroke="#202820" stroke-width="2"/><ellipse cx="400" cy="501" rx="157" ry="56" fill="#fff5de" stroke="#202820" stroke-width="3"/><rect x="0" y="0" width="800" height="119" rx="0" fill="#24624b" stroke="#202820" stroke-width="3"/><rect x="41" y="155" width="181" height="181" rx="90.5" fill="#fff5de" stroke="#202820" stroke-width="6"/><rect x="50" y="164" width="163" height="163" rx="81.5" fill="#15978d" stroke="#202820" stroke-width="2"/><circle cx="173.13" cy="207.49" r="14" fill="#f7c544" stroke="#202820" stroke-width="2"/><path d="M131.5 164v163M50 269.03h163" fill="none" stroke="#fff5de" stroke-width="5"/><path d="M54 290.75q39.82 -32.58 77.83 0t77.83 0v30.770000000000003H54Z" fill="#24624b" stroke="none" stroke-width="3"/><rect x="578" y="155" width="181" height="181" rx="90.5" fill="#fff5de" stroke="#202820" stroke-width="6"/><rect x="587" y="164" width="163" height="163" rx="81.5" fill="#15978d" stroke="#202820" stroke-width="2"/><circle cx="710.13" cy="207.49" r="14" fill="#f7c544" stroke="#202820" stroke-width="2"/><path d="M668.5 164v163M587 269.03h163" fill="none" stroke="#fff5de" stroke-width="5"/><path d="M591 290.75q39.82 -32.58 77.83 0t77.83 0v30.770000000000003H591Z" fill="#24624b" stroke="none" stroke-width="3"/><rect x="34" y="428" width="191" height="79" rx="13" fill="#df442d" stroke="#202820" stroke-width="3"/><rect x="33" y="382" width="192" height="70" rx="16" fill="#df442d" stroke="#202820" stroke-width="3"/><rect x="575" y="428" width="191" height="79" rx="13" fill="#df442d" stroke="#202820" stroke-width="3"/><rect x="575" y="382" width="192" height="70" rx="16" fill="#df442d" stroke="#202820" stroke-width="3"/><path d="M293 0v112" fill="none" stroke="#202820" stroke-width="4"/><path d="M255 142l18-31h40l18 31Z" fill="#f7c544" stroke="#202820" stroke-width="3"/><ellipse cx="293" cy="142" rx="38" ry="7" fill="#fff5de" stroke="#202820" stroke-width="3"/><path d="M505 0v112" fill="none" stroke="#202820" stroke-width="4"/><path d="M467 142l18-31h40l18 31Z" fill="#f7c544" stroke="#202820" stroke-width="3"/><ellipse cx="505" cy="142" rx="38" ry="7" fill="#fff5de" stroke="#202820" stroke-width="3"/><rect x="346" y="39" width="107" height="58" rx="5" fill="#fff5de" stroke="#202820" stroke-width="3"/><circle cx="400" cy="66" r="18" fill="#f7c544" stroke="#202820" stroke-width="3"/><path d="M392 66h16m-8-8v16" fill="none" stroke="#202820" stroke-width="3"/></svg>
