<svg xmlns="http://www.w3.org/2000/svg" width="480" height="360" viewBox="0 0 480 360"><ellipse cx="240" cy="195" rx="198" ry="110" fill="#000" stroke="#000" stroke-width="4"/><ellipse cx="240" cy="190" rx="176" ry="89" fill="#000" stroke="#000" stroke-width="2"/><path d="M84 235Q155 297 316 271" fill="none" stroke="#000" stroke-width="2" stroke-linecap="round" stroke-linejoin="round"/><g transform="translate(192 171) rotate(-25) scale(1)"><ellipse cx="0" cy="0" rx="83" ry="48" fill="#000" stroke="#000" stroke-width="3"/><ellipse cx="-62" cy="-4" rx="10" ry="27.5" fill="#000" stroke="#000" stroke-width="2"/><path d="M-65 -24.5Q-54 -15 -57 15" fill="none" stroke="#000" stroke-width="2" stroke-linecap="round" stroke-linejoin="round"/><ellipse cx="-48" cy="-4" rx="10" ry="30.5" fill="#000" stroke="#000" stroke-width="2"/><path d="M-51 -27.5Q-40 -15 -43 15" fill="none" stroke="#000" stroke-width="2" stroke-linecap="round" stroke-linejoin="round"/><ellipse cx="-34" cy="-4" rx="10" ry="33.5" fill="#000" stroke="#000" stroke-width="2"/><path d="M-37 -30.5Q-26 -15 -29 15" fill="none" stroke="#000" stroke-width="2" stroke-linecap="round" stroke-linejoin="round"/><ellipse cx="-20" cy="-4" rx="10" ry="36.5" fill="#000" stroke="#000" stroke-width="2"/><path d="M-23 -33.5Q-12 -15 -15 15" fill="none" stroke="#000" stroke-width="2" stroke-linecap="round" stroke-linejoin="round"/><ellipse cx="-6" cy="-4" rx="10" ry="39.5" fill="#000" stroke="#000" stroke-width="2"/><path d="M-9 -36.5Q2 -15 -1 15" fill="none" stroke="#000" stroke-width="2" stroke-linecap="round" stroke-linejoin="round"/><ellipse cx="8" cy="-4" rx="10" ry="39.5" fill="#000" stroke="#000" stroke-width="2"/><path d="M5 -36.5Q16 -15 13 15" fill="none" stroke="#000" stroke-width="2" stroke-linecap="round" stroke-linejoin="round"/><ellipse cx="22" cy="-4" rx="10" ry="36.5" fill="#000" stroke="#000" stroke-width="2"/><path d="M19 -33.5Q30 -15 27 15" fill="none" stroke="#000" stroke-width="2" stroke-linecap="round" stroke-linejoin="round"/><ellipse cx="36" cy="-4" rx="10" ry="33.5" fill="#000" stroke="#000" stroke-width="2"/><path d="M33 -30.5Q44 -15 41 15" fill="none" stroke="#000" stroke-width="2" stroke-linecap="round" stroke-linejoin="round"/><ellipse cx="50" cy="-4" rx="10" ry="30.5" fill="#000" stroke="#000" stroke-width="2"/><path d="M47 -27.5Q58 -15 55 15" fill="none" stroke="#000" stroke-width="2" stroke-linecap="round" stroke-linejoin="round"/><ellipse cx="64" cy="-4" rx="10" ry="27.5" fill="#000" stroke="#000" stroke-width="2"/><path d="M61 -24.5Q72 -15 69 15" fill="none" stroke="#000" stroke-width="2" stroke-linecap="round" stroke-linejoin="round"/><ellipse cx="-60" cy="-28" rx="1.7" ry="1" fill="#000" stroke="none" stroke-width="0"/><ellipse cx="-14.226804123711347" cy="1.7752808988764066" rx="2.7" ry="2" fill="#000" stroke="none" stroke-width="0"/><ellipse cx="31.546391752577307" cy="-18.449438202247194" rx="1.7" ry="1" fill="#000" stroke="none" stroke-width="0"/><ellipse cx="-42.680412371134025" cy="11.325842696629216" rx="2.7" ry="2" fill="#000" stroke="none" stroke-width="0"/><ellipse cx="3.0927835051546424" cy="-8.898876404494384" rx="1.7" ry="1" fill="#000" stroke="none" stroke-width="0"/><ellipse cx="48.865979381443296" cy="20.876404494382022" rx="2.7" ry="2" fill="#000" stroke="none" stroke-width="0"/><ellipse cx="-25.360824742268044" cy="0.6516853932584254" rx="1.7" ry="1" fill="#000" stroke="none" stroke-width="0"/><ellipse cx="20.412371134020617" cy="-19.573033707865168" rx="2.7" ry="2" fill="#000" stroke="none" stroke-width="0"/><ellipse cx="-53.81443298969072" cy="10.202247191011232" rx="1.7" ry="1" fill="#000" stroke="none" stroke-width="0"/><ellipse cx="-8.041237113402062" cy="-10.022471910112358" rx="2.7" ry="2" fill="#000" stroke="none" stroke-width="0"/><ellipse cx="37.73195876288659" cy="19.752808988764045" rx="1.7" ry="1" fill="#000" stroke="none" stroke-width="0"/><ellipse cx="-36.49484536082474" cy="-0.4719101123595486" rx="2.7" ry="2" fill="#000" stroke="none" stroke-width="0"/><ellipse cx="9.278350515463913" cy="-20.696629213483146" rx="1.7" ry="1" fill="#000" stroke="none" stroke-width="0"/><ellipse cx="55.05154639175258" cy="9.078651685393261" rx="2.7" ry="2" fill="#000" stroke="none" stroke-width="0"/><ellipse cx="-19.17525773195876" cy="-11.146067415730336" rx="1.7" ry="1" fill="#000" stroke="none" stroke-width="0"/><ellipse cx="26.597938144329902" cy="18.629213483146067" rx="2.7" ry="2" fill="#000" stroke="none" stroke-width="0"/><ellipse cx="-47.628865979381445" cy="-1.5955056179775298" rx="1.7" ry="1" fill="#000" stroke="none" stroke-width="0"/></g><g transform="translate(289 225) rotate(-25) scale(1)"><ellipse cx="0" cy="0" rx="83" ry="48" fill="#000" stroke="#000" stroke-width="3"/><ellipse cx="-62" cy="-4" rx="10" ry="27.5" fill="#000" stroke="#000" stroke-width="2"/><path d="M-65 -24.5Q-54 -15 -57 15" fill="none" stroke="#000" stroke-width="2" stroke-linecap="round" stroke-linejoin="round"/><ellipse cx="-48" cy="-4" rx="10" ry="30.5" fill="#000" stroke="#000" stroke-width="2"/><path d="M-51 -27.5Q-40 -15 -43 15" fill="none" stroke="#000" stroke-width="2" stroke-linecap="round" stroke-linejoin="round"/><ellipse cx="-34" cy="-4" rx="10" ry="33.5" fill="#000" stroke="#000" stroke-width="2"/><path d="M-37 -30.5Q-26 -15 -29 15" fill="none" stroke="#000" stroke-width="2" stroke-linecap="round" stroke-linejoin="round"/><ellipse cx="-20" cy="-4" rx="10" ry="36.5" fill="#000" stroke="#000" stroke-width="2"/><path d="M-23 -33.5Q-12 -15 -15 15" fill="none" stroke="#000" stroke-width="2" stroke-linecap="round" stroke-linejoin="round"/><ellipse cx="-6" cy="-4" rx="10" ry="39.5" fill="#000" stroke="#000" stroke-width="2"/><path d="M-9 -36.5Q2 -15 -1 15" fill="none" stroke="#000" stroke-width="2" stroke-linecap="round" stroke-linejoin="round"/><ellipse cx="8" cy="-4" rx="10" ry="39.5" fill="#000" stroke="#000" stroke-width="2"/><path d="M5 -36.5Q16 -15 13 15" fill="none" stroke="#000" stroke-width="2" stroke-linecap="round" stroke-linejoin="round"/><ellipse cx="22" cy="-4" rx="10" ry="36.5" fill="#000" stroke="#000" stroke-width="2"/><path d="M19 -33.5Q30 -15 27 15" fill="none" stroke="#000" stroke-width="2" stroke-linecap="round" stroke-linejoin="round"/><ellipse cx="36" cy="-4" rx="10" ry="33.5" fill="#000" stroke="#000" stroke-width="2"/><path d="M33 -30.5Q44 -15 41 15" fill="none" stroke="#000" stroke-width="2" stroke-linecap="round" stroke-linejoin="round"/><ellipse cx="50" cy="-4" rx="10" ry="30.5" fill="#000" stroke="#000" stroke-width="2"/><path d="M47 -27.5Q58 -15 55 15" fill="none" stroke="#000" stroke-width="2" stroke-linecap="round" stroke-linejoin="round"/><ellipse cx="64" cy="-4" rx="10" ry="27.5" fill="#000" stroke="#000" stroke-width="2"/><path d="M61 -24.5Q72 -15 69 15" fill="none" stroke="#000" stroke-width="2" stroke-linecap="round" stroke-linejoin="round"/><ellipse cx="-60" cy="-28" rx="1.7" ry="1" fill="#000" stroke="none" stroke-width="0"/><ellipse cx="-14.226804123711347" cy="1.7752808988764066" rx="2.7" ry="2" fill="#000" stroke="none" stroke-width="0"/><ellipse cx="31.546391752577307" cy="-18.449438202247194" rx="1.7" ry="1" fill="#000" stroke="none" stroke-width="0"/><ellipse cx="-42.680412371134025" cy="11.325842696629216" rx="2.7" ry="2" fill="#000" stroke="none" stroke-width="0"/><ellipse cx="3.0927835051546424" cy="-8.898876404494384" rx="1.7" ry="1" fill="#000" stroke="none" stroke-width="0"/><ellipse cx="48.865979381443296" cy="20.876404494382022" rx="2.7" ry="2" fill="#000" stroke="none" stroke-width="0"/><ellipse cx="-25.360824742268044" cy="0.6516853932584254" rx="1.7" ry="1" fill="#000" stroke="none" stroke-width="0"/><ellipse cx="20.412371134020617" cy="-19.573033707865168" rx="2.7" ry="2" fill="#000" stroke="none" stroke-width="0"/><ellipse cx="-53.81443298969072" cy="10.202247191011232" rx="1.7" ry="1" fill="#000" stroke="none" stroke-width="0"/><ellipse cx="-8.041237113402062" cy="-10.022471910112358" rx="2.7" ry="2" fill="#000" stroke="none" stroke-width="0"/><ellipse cx="37.73195876288659" cy="19.752808988764045" rx="1.7" ry="1" fill="#000" stroke="none" stroke-width="0"/><ellipse cx="-36.49484536082474" cy="-0.4719101123595486" rx="2.7" ry="2" fill="#000" stroke="none" stroke-width="0"/><ellipse cx="9.278350515463913" cy="-20.696629213483146" rx="1.7" ry="1" fill="#000" stroke="none" stroke-width="0"/><ellipse cx="55.05154639175258" cy="9.078651685393261" rx="2.7" ry="2" fill="#000" stroke="none" stroke-width="0"/><ellipse cx="-19.17525773195876" cy="-11.146067415730336" rx="1.7" ry="1" fill="#000" stroke="none" stroke-width="0"/><ellipse cx="26.597938144329902" cy="18.629213483146067" rx="2.7" ry="2" fill="#000" stroke="none" stroke-width="0"/><ellipse cx="-47.628865979381445" cy="-1.5955056179775298" rx="1.7" ry="1" fill="#000" stroke="none" stroke-width="0"/></g><path d="M321 167 355 127" fill="none" stroke="#000" stroke-width="3" stroke-linecap="round" stroke-linejoin="round"/><path d="M328 156 327 141M333 150 345 150M339 143 338 129M344 138 358 137" fill="none" stroke="#000" stroke-width="3" stroke-linecap="round" stroke-linejoin="round"/></svg>