<svg xmlns="http://www.w3.org/2000/svg" width="480" height="360" viewBox="0 0 480 360"><ellipse cx="240" cy="195" rx="198" ry="110" fill="#000" stroke="#000" stroke-width="4"/><ellipse cx="240" cy="190" rx="176" ry="89" fill="#000" stroke="#000" stroke-width="2"/><path d="M84 235Q155 297 316 271" fill="none" stroke="#000" stroke-width="2" stroke-linecap="round" stroke-linejoin="round"/><g transform="translate(173 196) rotate(-31) scale(1)"><path d="M0-110 0 105" fill="none" stroke="#000" stroke-width="7" stroke-linecap="round" stroke-linejoin="round"/><path d="M0-110 0 105" fill="none" stroke="#000" stroke-width="3" stroke-linecap="round" stroke-linejoin="round"/><rect x="-23" y="-72" width="45" height="33" rx="8" fill="#000" stroke="#000" stroke-width="3"/><path d="M-15 -65 14 -57" fill="none" stroke="#000" stroke-width="3" stroke-linecap="round" stroke-linejoin="round"/><path d="M-15 -54 11 -45" fill="none" stroke="#000" stroke-width="3" stroke-linecap="round" stroke-linejoin="round"/><rect x="-24" y="-38" width="47" height="19" rx="3" fill="#000" stroke="#000" stroke-width="3"/><path d="M-15 -34 15 -34" fill="none" stroke="#000" stroke-width="2" stroke-linecap="round" stroke-linejoin="round"/><path d="M-15 -27 15 -27" fill="none" stroke="#000" stroke-width="2" stroke-linecap="round" stroke-linejoin="round"/><rect x="-23" y="-19" width="45" height="33" rx="8" fill="#000" stroke="#000" stroke-width="3"/><path d="M-15 -12 14 -4" fill="none" stroke="#000" stroke-width="3" stroke-linecap="round" stroke-linejoin="round"/><path d="M-15 -1 11 8" fill="none" stroke="#000" stroke-width="3" stroke-linecap="round" stroke-linejoin="round"/><rect x="-24" y="15" width="47" height="19" rx="3" fill="#000" stroke="#000" stroke-width="3"/><path d="M-15 19 15 19" fill="none" stroke="#000" stroke-width="2" stroke-linecap="round" stroke-linejoin="round"/><path d="M-15 26 15 26" fill="none" stroke="#000" stroke-width="2" stroke-linecap="round" stroke-linejoin="round"/><rect x="-23" y="34" width="45" height="33" rx="8" fill="#000" stroke="#000" stroke-width="3"/><path d="M-15 41 14 49" fill="none" stroke="#000" stroke-width="3" stroke-linecap="round" stroke-linejoin="round"/><path d="M-15 52 11 61" fill="none" stroke="#000" stroke-width="3" stroke-linecap="round" stroke-linejoin="round"/></g><g transform="translate(242 207) rotate(-31) scale(1)"><path d="M0-110 0 105" fill="none" stroke="#000" stroke-width="7" stroke-linecap="round" stroke-linejoin="round"/><path d="M0-110 0 105" fill="none" stroke="#000" stroke-width="3" stroke-linecap="round" stroke-linejoin="round"/><rect x="-23" y="-72" width="45" height="33" rx="8" fill="#000" stroke="#000" stroke-width="3"/><path d="M-15 -65 14 -57" fill="none" stroke="#000" stroke-width="3" stroke-linecap="round" stroke-linejoin="round"/><path d="M-15 -54 11 -45" fill="none" stroke="#000" stroke-width="3" stroke-linecap="round" stroke-linejoin="round"/><rect x="-24" y="-38" width="47" height="19" rx="3" fill="#000" stroke="#000" stroke-width="3"/><path d="M-15 -34 15 -34" fill="none" stroke="#000" stroke-width="2" stroke-linecap="round" stroke-linejoin="round"/><path d="M-15 -27 15 -27" fill="none" stroke="#000" stroke-width="2" stroke-linecap="round" stroke-linejoin="round"/><rect x="-23" y="-19" width="45" height="33" rx="8" fill="#000" stroke="#000" stroke-width="3"/><path d="M-15 -12 14 -4" fill="none" stroke="#000" stroke-width="3" stroke-linecap="round" stroke-linejoin="round"/><path d="M-15 -1 11 8" fill="none" stroke="#000" stroke-width="3" stroke-linecap="round" stroke-linejoin="round"/><rect x="-24" y="15" width="47" height="19" rx="3" fill="#000" stroke="#000" stroke-width="3"/><path d="M-15 19 15 19" fill="none" stroke="#000" stroke-width="2" stroke-linecap="round" stroke-linejoin="round"/><path d="M-15 26 15 26" fill="none" stroke="#000" stroke-width="2" stroke-linecap="round" stroke-linejoin="round"/><rect x="-23" y="34" width="45" height="33" rx="8" fill="#000" stroke="#000" stroke-width="3"/><path d="M-15 41 14 49" fill="none" stroke="#000" stroke-width="3" stroke-linecap="round" stroke-linejoin="round"/><path d="M-15 52 11 61" fill="none" stroke="#000" stroke-width="3" stroke-linecap="round" stroke-linejoin="round"/></g><g transform="translate(311 218) rotate(-31) scale(1)"><path d="M0-110 0 105" fill="none" stroke="#000" stroke-width="7" stroke-linecap="round" stroke-linejoin="round"/><path d="M0-110 0 105" fill="none" stroke="#000" stroke-width="3" stroke-linecap="round" stroke-linejoin="round"/><rect x="-23" y="-72" width="45" height="33" rx="8" fill="#000" stroke="#000" stroke-width="3"/><path d="M-15 -65 14 -57" fill="none" stroke="#000" stroke-width="3" stroke-linecap="round" stroke-linejoin="round"/><path d="M-15 -54 11 -45" fill="none" stroke="#000" stroke-width="3" stroke-linecap="round" stroke-linejoin="round"/><rect x="-24" y="-38" width="47" height="19" rx="3" fill="#000" stroke="#000" stroke-width="3"/><path d="M-15 -34 15 -34" fill="none" stroke="#000" stroke-width="2" stroke-linecap="round" stroke-linejoin="round"/><path d="M-15 -27 15 -27" fill="none" stroke="#000" stroke-width="2" stroke-linecap="round" stroke-linejoin="round"/><rect x="-23" y="-19" width="45" height="33" rx="8" fill="#000" stroke="#000" stroke-width="3"/><path d="M-15 -12 14 -4" fill="none" stroke="#000" stroke-width="3" stroke-linecap="round" stroke-linejoin="round"/><path d="M-15 -1 11 8" fill="none" stroke="#000" stroke-width="3" stroke-linecap="round" stroke-linejoin="round"/><rect x="-24" y="15" width="47" height="19" rx="3" fill="#000" stroke="#000" stroke-width="3"/><path d="M-15 19 15 19" fill="none" stroke="#000" stroke-width="2" stroke-linecap="round" stroke-linejoin="round"/><path d="M-15 26 15 26" fill="none" stroke="#000" stroke-width="2" stroke-linecap="round" stroke-linejoin="round"/><rect x="-23" y="34" width="45" height="33" rx="8" fill="#000" stroke="#000" stroke-width="3"/><path d="M-15 41 14 49" fill="none" stroke="#000" stroke-width="3" stroke-linecap="round" stroke-linejoin="round"/><path d="M-15 52 11 61" fill="none" stroke="#000" stroke-width="3" stroke-linecap="round" stroke-linejoin="round"/></g><g transform="translate(341 139) rotate(25) scale(0.9)"><path d="M-32 4Q0-35 32 4L0 26Z" fill="#000" stroke="#000" stroke-width="3" stroke-linecap="round" stroke-linejoin="round"/><path d="M-23 4Q0-20 23 4L0 18Z" fill="#000" stroke="#000" stroke-width="1.7" stroke-linecap="round" stroke-linejoin="round"/><path d="M0 17 0-11" fill="none" stroke="#000" stroke-width="2" stroke-linecap="round" stroke-linejoin="round"/><path d="M0 17-14-1" fill="none" stroke="#000" stroke-width="2" stroke-linecap="round" stroke-linejoin="round"/><path d="M0 17 14-1" fill="none" stroke="#000" stroke-width="2" stroke-linecap="round" stroke-linejoin="round"/></g></svg>