<svg xmlns="http://www.w3.org/2000/svg" viewBox="0 0 480 360" role="img" aria-labelledby="title"><title id="title">山菜おこわ</title><path d="M65 173Q82 291 240 297Q398 291 415 173Z" fill="#000" stroke="#000" stroke-width="3" stroke-linejoin="round" stroke-linecap="round"/><ellipse cx="240" cy="173" rx="175" ry="89" fill="#000" stroke="#000" stroke-width="3"/><ellipse cx="240" cy="173" rx="156" ry="73" fill="#000" stroke="#000" stroke-width="3"/><path d="M139 257Q237 286 343 254" fill="none" stroke="#000" stroke-width="5" stroke-linejoin="round" stroke-linecap="round"/><ellipse cx="236" cy="176" rx="132" ry="65" fill="#000" stroke="#000" stroke-width="2"/><ellipse cx="267" cy="218" rx="3" ry="1.5" fill="#000" stroke="none" stroke-width="0"/><ellipse cx="308" cy="156" rx="3" ry="1.5" fill="#000" stroke="none" stroke-width="0"/><ellipse cx="138" cy="179" rx="3" ry="1.5" fill="#000" stroke="none" stroke-width="0"/><ellipse cx="179" cy="202" rx="3" ry="1.5" fill="#000" stroke="none" stroke-width="0"/><ellipse cx="220" cy="140" rx="3" ry="1.5" fill="#000" stroke="none" stroke-width="0"/><ellipse cx="261" cy="163" rx="3" ry="1.5" fill="#000" stroke="none" stroke-width="0"/><ellipse cx="302" cy="186" rx="3" ry="1.5" fill="#000" stroke="none" stroke-width="0"/><ellipse cx="173" cy="147" rx="3" ry="1.5" fill="#000" stroke="none" stroke-width="0"/><ellipse cx="214" cy="170" rx="3" ry="1.5" fill="#000" stroke="none" stroke-width="0"/><ellipse cx="255" cy="193" rx="3" ry="1.5" fill="#000" stroke="none" stroke-width="0"/><ellipse cx="296" cy="216" rx="3" ry="1.5" fill="#000" stroke="none" stroke-width="0"/><ellipse cx="337" cy="154" rx="3" ry="1.5" fill="#000" stroke="none" stroke-width="0"/><ellipse cx="167" cy="177" rx="3" ry="1.5" fill="#000" stroke="none" stroke-width="0"/><ellipse cx="208" cy="200" rx="3" ry="1.5" fill="#000" stroke="none" stroke-width="0"/><ellipse cx="249" cy="138" rx="3" ry="1.5" fill="#000" stroke="none" stroke-width="0"/><ellipse cx="290" cy="161" rx="3" ry="1.5" fill="#000" stroke="none" stroke-width="0"/><ellipse cx="331" cy="184" rx="3" ry="1.5" fill="#000" stroke="none" stroke-width="0"/><ellipse cx="161" cy="207" rx="3" ry="1.5" fill="#000" stroke="none" stroke-width="0"/><ellipse cx="202" cy="145" rx="3" ry="1.5" fill="#000" stroke="none" stroke-width="0"/><ellipse cx="243" cy="168" rx="3" ry="1.5" fill="#000" stroke="none" stroke-width="0"/><ellipse cx="284" cy="191" rx="3" ry="1.5" fill="#000" stroke="none" stroke-width="0"/><ellipse cx="325" cy="214" rx="3" ry="1.5" fill="#000" stroke="none" stroke-width="0"/><ellipse cx="155" cy="152" rx="3" ry="1.5" fill="#000" stroke="none" stroke-width="0"/><ellipse cx="196" cy="175" rx="3" ry="1.5" fill="#000" stroke="none" stroke-width="0"/><ellipse cx="237" cy="198" rx="3" ry="1.5" fill="#000" stroke="none" stroke-width="0"/><ellipse cx="278" cy="136" rx="3" ry="1.5" fill="#000" stroke="none" stroke-width="0"/><ellipse cx="319" cy="159" rx="3" ry="1.5" fill="#000" stroke="none" stroke-width="0"/><ellipse cx="149" cy="182" rx="3" ry="1.5" fill="#000" stroke="none" stroke-width="0"/><ellipse cx="190" cy="205" rx="3" ry="1.5" fill="#000" stroke="none" stroke-width="0"/><ellipse cx="231" cy="143" rx="3" ry="1.5" fill="#000" stroke="none" stroke-width="0"/><ellipse cx="272" cy="166" rx="3" ry="1.5" fill="#000" stroke="none" stroke-width="0"/><ellipse cx="313" cy="189" rx="3" ry="1.5" fill="#000" stroke="none" stroke-width="0"/><ellipse cx="143" cy="212" rx="3" ry="1.5" fill="#000" stroke="none" stroke-width="0"/><ellipse cx="184" cy="150" rx="3" ry="1.5" fill="#000" stroke="none" stroke-width="0"/><ellipse cx="225" cy="173" rx="3" ry="1.5" fill="#000" stroke="none" stroke-width="0"/><ellipse cx="266" cy="196" rx="3" ry="1.5" fill="#000" stroke="none" stroke-width="0"/><ellipse cx="307" cy="219" rx="3" ry="1.5" fill="#000" stroke="none" stroke-width="0"/><ellipse cx="137" cy="157" rx="3" ry="1.5" fill="#000" stroke="none" stroke-width="0"/><ellipse cx="178" cy="180" rx="3" ry="1.5" fill="#000" stroke="none" stroke-width="0"/><ellipse cx="219" cy="203" rx="3" ry="1.5" fill="#000" stroke="none" stroke-width="0"/><ellipse cx="260" cy="141" rx="3" ry="1.5" fill="#000" stroke="none" stroke-width="0"/><ellipse cx="301" cy="164" rx="3" ry="1.5" fill="#000" stroke="none" stroke-width="0"/><ellipse cx="342" cy="187" rx="3" ry="1.5" fill="#000" stroke="none" stroke-width="0"/><ellipse cx="172" cy="210" rx="3" ry="1.5" fill="#000" stroke="none" stroke-width="0"/><ellipse cx="213" cy="148" rx="3" ry="1.5" fill="#000" stroke="none" stroke-width="0"/><ellipse cx="254" cy="171" rx="3" ry="1.5" fill="#000" stroke="none" stroke-width="0"/><ellipse cx="295" cy="194" rx="3" ry="1.5" fill="#000" stroke="none" stroke-width="0"/><ellipse cx="166" cy="155" rx="3" ry="1.5" fill="#000" stroke="none" stroke-width="0"/><ellipse cx="207" cy="178" rx="3" ry="1.5" fill="#000" stroke="none" stroke-width="0"/><ellipse cx="248" cy="201" rx="3" ry="1.5" fill="#000" stroke="none" stroke-width="0"/><ellipse cx="289" cy="139" rx="3" ry="1.5" fill="#000" stroke="none" stroke-width="0"/><ellipse cx="330" cy="162" rx="3" ry="1.5" fill="#000" stroke="none" stroke-width="0"/><ellipse cx="160" cy="185" rx="3" ry="1.5" fill="#000" stroke="none" stroke-width="0"/><ellipse cx="201" cy="208" rx="3" ry="1.5" fill="#000" stroke="none" stroke-width="0"/><ellipse cx="242" cy="146" rx="3" ry="1.5" fill="#000" stroke="none" stroke-width="0"/><ellipse cx="283" cy="169" rx="3" ry="1.5" fill="#000" stroke="none" stroke-width="0"/><ellipse cx="324" cy="192" rx="3" ry="1.5" fill="#000" stroke="none" stroke-width="0"/><ellipse cx="154" cy="215" rx="3" ry="1.5" fill="#000" stroke="none" stroke-width="0"/><ellipse cx="195" cy="153" rx="3" ry="1.5" fill="#000" stroke="none" stroke-width="0"/><ellipse cx="236" cy="176" rx="3" ry="1.5" fill="#000" stroke="none" stroke-width="0"/><ellipse cx="277" cy="199" rx="3" ry="1.5" fill="#000" stroke="none" stroke-width="0"/><ellipse cx="318" cy="137" rx="3" ry="1.5" fill="#000" stroke="none" stroke-width="0"/><ellipse cx="148" cy="160" rx="3" ry="1.5" fill="#000" stroke="none" stroke-width="0"/><ellipse cx="189" cy="183" rx="3" ry="1.5" fill="#000" stroke="none" stroke-width="0"/><ellipse cx="230" cy="206" rx="3" ry="1.5" fill="#000" stroke="none" stroke-width="0"/><ellipse cx="271" cy="144" rx="3" ry="1.5" fill="#000" stroke="none" stroke-width="0"/><ellipse cx="312" cy="167" rx="3" ry="1.5" fill="#000" stroke="none" stroke-width="0"/><ellipse cx="142" cy="190" rx="3" ry="1.5" fill="#000" stroke="none" stroke-width="0"/><ellipse cx="183" cy="213" rx="3" ry="1.5" fill="#000" stroke="none" stroke-width="0"/><ellipse cx="224" cy="151" rx="3" ry="1.5" fill="#000" stroke="none" stroke-width="0"/><ellipse cx="265" cy="174" rx="3" ry="1.5" fill="#000" stroke="none" stroke-width="0"/><ellipse cx="306" cy="197" rx="3" ry="1.5" fill="#000" stroke="none" stroke-width="0"/><ellipse cx="177" cy="158" rx="3" ry="1.5" fill="#000" stroke="none" stroke-width="0"/><ellipse cx="218" cy="181" rx="3" ry="1.5" fill="#000" stroke="none" stroke-width="0"/><ellipse cx="259" cy="204" rx="3" ry="1.5" fill="#000" stroke="none" stroke-width="0"/><ellipse cx="300" cy="142" rx="3" ry="1.5" fill="#000" stroke="none" stroke-width="0"/><ellipse cx="341" cy="165" rx="3" ry="1.5" fill="#000" stroke="none" stroke-width="0"/><g transform="translate(165 156) rotate(-14) scale(1.4)"><path d="M-24 7Q-27-9-11-16L-3-10 9-20Q24-15 23 0L15 13 0 17Z" fill="#000" stroke="#000" stroke-width="3" stroke-linejoin="round" stroke-linecap="round"/><path d="M-19 7 17-9" fill="none" stroke="#000" stroke-width="2" stroke-linejoin="round" stroke-linecap="round"/></g><g transform="translate(293 141) rotate(-14) scale(1.4)"><path d="M-27-21 22-20 29 21-24 22Z" fill="#000" stroke="#000" stroke-width="3" stroke-linejoin="round" stroke-linecap="round"/><path d="M-17-10 14-10M-17 2 18 2M-15 13 15 13" fill="none" stroke="#000" stroke-width="2" stroke-linejoin="round" stroke-linecap="round"/></g><g transform="translate(242 200) rotate(-14) scale(1.4)"><path d="M-24 7Q-27-9-11-16L-3-10 9-20Q24-15 23 0L15 13 0 17Z" fill="#000" stroke="#000" stroke-width="3" stroke-linejoin="round" stroke-linecap="round"/><path d="M-19 7 17-9" fill="none" stroke="#000" stroke-width="2" stroke-linejoin="round" stroke-linecap="round"/></g><g transform="translate(322 201) rotate(-14) scale(1.4)"><path d="M-27-21 22-20 29 21-24 22Z" fill="#000" stroke="#000" stroke-width="3" stroke-linejoin="round" stroke-linecap="round"/><path d="M-17-10 14-10M-17 2 18 2M-15 13 15 13" fill="none" stroke="#000" stroke-width="2" stroke-linejoin="round" stroke-linecap="round"/></g><g transform="translate(193 210) rotate(-14) scale(1.4)"><path d="M-24 7Q-27-9-11-16L-3-10 9-20Q24-15 23 0L15 13 0 17Z" fill="#000" stroke="#000" stroke-width="3" stroke-linejoin="round" stroke-linecap="round"/><path d="M-19 7 17-9" fill="none" stroke="#000" stroke-width="2" stroke-linejoin="round" stroke-linecap="round"/></g><g transform="translate(228 133) rotate(-14) scale(1.4)"><path d="M-27-21 22-20 29 21-24 22Z" fill="#000" stroke="#000" stroke-width="3" stroke-linejoin="round" stroke-linecap="round"/><path d="M-17-10 14-10M-17 2 18 2M-15 13 15 13" fill="none" stroke="#000" stroke-width="2" stroke-linejoin="round" stroke-linecap="round"/></g><g transform="translate(124 183) rotate(-14) scale(1.4)"><path d="M-24 7Q-27-9-11-16L-3-10 9-20Q24-15 23 0L15 13 0 17Z" fill="#000" stroke="#000" stroke-width="3" stroke-linejoin="round" stroke-linecap="round"/><path d="M-19 7 17-9" fill="none" stroke="#000" stroke-width="2" stroke-linejoin="round" stroke-linecap="round"/></g><g transform="translate(279 228) rotate(-14) scale(1.4)"><path d="M-27-21 22-20 29 21-24 22Z" fill="#000" stroke="#000" stroke-width="3" stroke-linejoin="round" stroke-linecap="round"/><path d="M-17-10 14-10M-17 2 18 2M-15 13 15 13" fill="none" stroke="#000" stroke-width="2" stroke-linejoin="round" stroke-linecap="round"/></g><g transform="translate(150 215) rotate(-14) scale(1.4)"><path d="M-24 7Q-27-9-11-16L-3-10 9-20Q24-15 23 0L15 13 0 17Z" fill="#000" stroke="#000" stroke-width="3" stroke-linejoin="round" stroke-linecap="round"/><path d="M-19 7 17-9" fill="none" stroke="#000" stroke-width="2" stroke-linejoin="round" stroke-linecap="round"/></g><g transform="translate(339 168) rotate(-14) scale(1.4)"><path d="M-27-21 22-20 29 21-24 22Z" fill="#000" stroke="#000" stroke-width="3" stroke-linejoin="round" stroke-linecap="round"/><path d="M-17-10 14-10M-17 2 18 2M-15 13 15 13" fill="none" stroke="#000" stroke-width="2" stroke-linejoin="round" stroke-linecap="round"/></g><g transform="translate(212 171) rotate(-14) scale(1.4)"><path d="M-24 7Q-27-9-11-16L-3-10 9-20Q24-15 23 0L15 13 0 17Z" fill="#000" stroke="#000" stroke-width="3" stroke-linejoin="round" stroke-linecap="round"/><path d="M-19 7 17-9" fill="none" stroke="#000" stroke-width="2" stroke-linejoin="round" stroke-linecap="round"/></g><g transform="translate(279 177) rotate(-14) scale(1.4)"><path d="M-27-21 22-20 29 21-24 22Z" fill="#000" stroke="#000" stroke-width="3" stroke-linejoin="round" stroke-linecap="round"/><path d="M-17-10 14-10M-17 2 18 2M-15 13 15 13" fill="none" stroke="#000" stroke-width="2" stroke-linejoin="round" stroke-linecap="round"/></g></svg>
