<svg xmlns="http://www.w3.org/2000/svg" viewBox="0 0 480 360" role="img" aria-labelledby="title"><title id="title">鶏団子鍋</title><path d="M65 173Q82 291 240 297Q398 291 415 173Z" fill="#000" stroke="#000" stroke-width="3" stroke-linejoin="round" stroke-linecap="round"/><ellipse cx="240" cy="173" rx="175" ry="89" fill="#000" stroke="#000" stroke-width="3"/><ellipse cx="240" cy="173" rx="156" ry="73" fill="#000" stroke="#000" stroke-width="3"/><path d="M139 257Q237 286 343 254" fill="none" stroke="#000" stroke-width="5" stroke-linejoin="round" stroke-linecap="round"/><path d="M136 266V103" fill="none" stroke="#000" stroke-width="4" stroke-linejoin="round" stroke-linecap="round"/><ellipse cx="136" cy="126" rx="25" ry="22" fill="#000" stroke="#000" stroke-width="3"/><ellipse cx="136" cy="166" rx="25" ry="22" fill="#000" stroke="#000" stroke-width="3"/><ellipse cx="136" cy="206" rx="25" ry="22" fill="#000" stroke="#000" stroke-width="3"/><path d="M224 266V103" fill="none" stroke="#000" stroke-width="4" stroke-linejoin="round" stroke-linecap="round"/><ellipse cx="224" cy="126" rx="25" ry="22" fill="#000" stroke="#000" stroke-width="3"/><ellipse cx="224" cy="166" rx="25" ry="22" fill="#000" stroke="#000" stroke-width="3"/><ellipse cx="224" cy="206" rx="25" ry="22" fill="#000" stroke="#000" stroke-width="3"/><path d="M312 266V103" fill="none" stroke="#000" stroke-width="4" stroke-linejoin="round" stroke-linecap="round"/><ellipse cx="312" cy="126" rx="25" ry="22" fill="#000" stroke="#000" stroke-width="3"/><ellipse cx="312" cy="166" rx="25" ry="22" fill="#000" stroke="#000" stroke-width="3"/><ellipse cx="312" cy="206" rx="25" ry="22" fill="#000" stroke="#000" stroke-width="3"/><g transform="translate(165 156) rotate(12) scale(1)"><path d="M-19-11-1-18 18-9 23 8 7 19-15 14-24 2Z" fill="#000" stroke="#000" stroke-width="3" stroke-linejoin="round" stroke-linecap="round"/><path d="M-12-4 9-4M-8 5 12 4" fill="none" stroke="#000" stroke-width="3" stroke-linejoin="round" stroke-linecap="round"/></g><g transform="translate(293 141) rotate(12) scale(1)"><path d="M-24 7Q-27-9-11-16L-3-10 9-20Q24-15 23 0L15 13 0 17Z" fill="#000" stroke="#000" stroke-width="3" stroke-linejoin="round" stroke-linecap="round"/><path d="M-19 7 17-9" fill="none" stroke="#000" stroke-width="2" stroke-linejoin="round" stroke-linecap="round"/></g></svg>
