<svg xmlns="http://www.w3.org/2000/svg" viewBox="0 0 300 300" fill="none" role="img" aria-labelledby="c-hotape-4-title" stroke-linecap="round" stroke-linejoin="round"><title id="c-hotape-4-title">ほたぺ・とっておき</title><ellipse cx="150" cy="276" rx="93" ry="6" fill="#202820" stroke="none" stroke-width="3" opacity=".12"/><path d="M103 217Q11 185 31 118l22 6-4-26 29 9 7-31 35 15 28-38 32 35 34-17 14 34 28-8-1 29 23-4q25 81-81 95Z" fill="#fff5de" stroke="#202820" stroke-width="3"/><path d="M150 207 43 125m110 79L83 102m73 102-7-128m9 129 48-107m-48 113 94-81" fill="none" stroke="#df442d" stroke-width="4"/><path d="M129 153q42-5 62 34l32 33 47 14-17 17-55-5q-37 26-81-7l-34-13-38 5 6-23 45-18Z" fill="#fff5de" stroke="#202820" stroke-width="3"/><ellipse cx="148" cy="164" rx="51" ry="42" fill="#fff5de" stroke="#202820" stroke-width="3"/><path d="M118 198 68 253l35 12 46-50m26-16 33 61 34-11-34-45Z" fill="#df442d" stroke="#202820" stroke-width="3"/><circle cx="125" cy="161" r="5" fill="#202820" stroke="none" stroke-width="3"/><circle cx="173" cy="161" r="5" fill="#202820" stroke="none" stroke-width="3"/><path d="M141 178q8 10 16 0" fill="none" stroke="#202820" stroke-width="3.5"/><circle cx="125" cy="159" r="1" fill="#fff5de" stroke="none" stroke-width="3"/><circle cx="173" cy="159" r="1" fill="#fff5de" stroke="none" stroke-width="3"/></svg>
